<?xml version="1.0" encoding="utf-8"?>
<!-- Generator: Adobe Illustrator 25.4.1, SVG Export Plug-In . SVG Version: 6.00 Build 0)  -->
<svg version="1.1" id="Layer_1" xmlns="http://www.w3.org/2000/svg" xmlns:xlink="http://www.w3.org/1999/xlink" x="0px" y="0px"
	 viewBox="0 0 500 500" style="enable-background:new 0 0 500 500;" xml:space="preserve">
<style type="text/css">
	.st0{fill:#161616;}
</style>
<path class="st0" d="M3.2,349.3c3.1-3.1,8.3-4.2,12.5-2.1c35.4,19.7,76,30.1,117.7,30.1c135.4,0,244.8-109.1,244.8-244.3
	c0-40.5-10.4-81.1-30.2-117.4c-2.1-4.2-1-9.4,2.1-12.5c3.1-3.1,8.3-4.2,12.5-2.1C446.9,48.9,500,138.3,500,234.9
	C500,381.5,381.3,500,234.4,500C137.5,500,48,447,1.1,361.8C-1,357.6,0,352.4,3.2,349.3L3.2,349.3z"/>
</svg>
