<?xml version="1.0" encoding="utf-8"?>
<!-- Generator: Adobe Illustrator 25.4.1, SVG Export Plug-In . SVG Version: 6.00 Build 0)  -->
<svg version="1.1" id="Layer_1" xmlns="http://www.w3.org/2000/svg" xmlns:xlink="http://www.w3.org/1999/xlink" x="0px" y="0px"
	 viewBox="0 0 500 500" style="enable-background:new 0 0 500 500;" xml:space="preserve">
<path d="M494,465.2l-92.4-92.4c33-39.5,52.9-90.2,52.9-145.5C454.5,101.9,352.6,0,227.3,0S0,101.9,0,227.3s101.9,227.3,227.3,227.3
	c55.3,0,106.1-19.9,145.5-52.9l92.4,92.4c4,4,9.2,6,14.4,6c5.2,0,10.4-2,14.4-6C502,486.1,502,473.1,494,465.2L494,465.2z
	 M40.8,227.3c0-102.8,83.6-186.4,186.4-186.4c102.8,0,186.4,83.6,186.4,186.4c0,102.8-83.6,186.4-186.4,186.4
	C124.4,413.7,40.8,330.1,40.8,227.3L40.8,227.3z"/>
</svg>
