<?xml version="1.0" encoding="utf-8"?>
<!-- Generator: Adobe Illustrator 25.4.1, SVG Export Plug-In . SVG Version: 6.00 Build 0)  -->
<svg version="1.1" id="Layer_1" xmlns="http://www.w3.org/2000/svg" xmlns:xlink="http://www.w3.org/1999/xlink" x="0px" y="0px"
	 viewBox="0 0 500 500" style="enable-background:new 0 0 500 500;" xml:space="preserve">
<style type="text/css">
	.st0{fill:#FFFFFF;}
</style>
<g>
	<path class="st0" d="M383.7,250c0,73.9-59.9,133.7-133.7,133.7S116.3,323.9,116.3,250S176.1,116.3,250,116.3S383.7,176.1,383.7,250
		"/>
	<path class="st0" d="M267.4,64V17.4c0-6.2-3.3-12-8.7-15.1s-12-3.1-17.4,0s-8.7,8.9-8.7,15.1V64c0,6.2,3.3,12,8.7,15.1
		s12,3.1,17.4,0S267.4,70.2,267.4,64z"/>
	<path class="st0" d="M369.2,130.8c3.3,3.3,7.7,5.1,12.3,5.1c4.6,0,9.1-1.8,12.3-5.1l32.8-32.9c4-4.5,5.4-10.7,3.8-16.4
		c-1.7-5.8-6.2-10.3-11.9-11.9c-5.8-1.7-12-0.2-16.4,3.8l-32.9,32.9c-3.3,3.3-5.1,7.7-5.1,12.3S366,127.5,369.2,130.8L369.2,130.8z"
		/>
	<path class="st0" d="M482.6,232.6H436c-6.2,0-12,3.3-15.1,8.7s-3.1,12,0,17.4c3.1,5.4,8.9,8.7,15.1,8.7h46.5l0,0
		c6.2,0,12-3.3,15.1-8.7c3.1-5.4,3.1-12,0-17.4S488.8,232.6,482.6,232.6L482.6,232.6z"/>
	<path class="st0" d="M393.9,369.2c-4.4-4.4-10.8-6.1-16.9-4.5c-6,1.6-10.7,6.3-12.3,12.3c-1.6,6,0.1,12.4,4.5,16.9l32.9,32.9
		c4.5,4,10.7,5.4,16.4,3.8c5.8-1.7,10.3-6.2,11.9-11.9c1.7-5.8,0.2-12-3.8-16.4L393.9,369.2z"/>
	<path class="st0" d="M267.4,482.6V436c0-6.2-3.3-12-8.7-15.1s-12-3.1-17.4,0s-8.7,8.9-8.7,15.1v46.5l0,0c0,6.2,3.3,12,8.7,15.1
		s12,3.1,17.4,0C264.1,494.5,267.4,488.8,267.4,482.6L267.4,482.6z"/>
	<path class="st0" d="M97.9,426.7l32.9-32.9l0,0c4.3-4.4,5.9-10.8,4.3-16.7c-1.6-5.9-6.3-10.6-12.2-12.2c-5.9-1.6-12.3,0-16.7,4.3
		l-32.9,33c-4,4.5-5.4,10.7-3.8,16.4c1.7,5.8,6.2,10.3,11.9,11.9C87.2,432.2,93.4,430.7,97.9,426.7L97.9,426.7z"/>
	<path class="st0" d="M17.4,232.6c-6.2,0-12,3.3-15.1,8.7s-3.1,12,0,17.4c3.1,5.4,8.9,8.7,15.1,8.7H64c6.2,0,12-3.3,15.1-8.7
		c3.1-5.4,3.1-12,0-17.4s-8.9-8.7-15.1-8.7L17.4,232.6L17.4,232.6z"/>
	<path class="st0" d="M97.9,73.3c-4.5-4-10.7-5.4-16.4-3.8c-5.8,1.7-10.3,6.2-11.9,11.9c-1.7,5.8-0.2,12,3.8,16.4l32.9,32.9
		c4.4,4.3,10.8,5.9,16.7,4.3c5.9-1.6,10.6-6.3,12.2-12.2c1.6-5.9,0-12.3-4.3-16.7L97.9,73.3z"/>
</g>
</svg>
